<svg xmlns="http://www.w3.org/2000/svg" xmlns:xlink="http://www.w3.org/1999/xlink" viewBox="0,0,256,256" width="50px" height="50px" fill-rule="nonzero"><g fill="#1c8ca9" fill-rule="nonzero" stroke="none" stroke-width="1" stroke-linecap="butt" stroke-linejoin="miter" stroke-miterlimit="10" stroke-dasharray="" stroke-dashoffset="0" font-family="none" font-weight="none" font-size="none" text-anchor="none" style="mix-blend-mode: normal"><g transform="scale(5.12,5.12)"><path d="M25,2c-12.69141,0 -23,10.30859 -23,23c0,12.69141 10.30859,23 23,23c12.69141,0 23,-10.30859 23,-23c0,-12.69141 -10.30859,-23 -23,-23zM25,4c11.60938,0 21,9.39063 21,21c0,11.60938 -9.39062,21 -21,21c-11.60937,0 -21,-9.39062 -21,-21c0,-11.60937 9.39063,-21 21,-21zM16,12c-1.64453,0 -3,1.35547 -3,3c0,1.64453 1.35547,3 3,3c1.64453,0 3,-1.35547 3,-3c0,-1.64453 -1.35547,-3 -3,-3zM16,14c0.5625,0 1,0.4375 1,1c0,0.5625 -0.4375,1 -1,1c-0.5625,0 -1,-0.4375 -1,-1c0,-0.5625 0.4375,-1 1,-1zM14,19c-0.55078,0 -1,0.44922 -1,1v15c0,0.55078 0.44922,1 1,1h4c0.55078,0 1,-0.44922 1,-1v-15c0,-0.55078 -0.44922,-1 -1,-1zM22,19c-0.55078,0 -1,0.44922 -1,1v15c0,0.55078 0.44922,1 1,1h4c0.55078,0 1,-0.44922 1,-1v-7.5c0,-1.37891 1.12109,-2.5 2.5,-2.5c1.37891,0 2.5,1.12109 2.5,2.5v7.5c0,0.55078 0.44922,1 1,1h4c0.55078,0 1,-0.44922 1,-1v-8.5c0,-4.12891 -3.37109,-7.5 -7.5,-7.5c-1.28516,0 -2.44141,0.41797 -3.5,0.98828c-0.00391,-0.54687 -0.45312,-0.98828 -1,-0.98828zM15,21h2v13h-2zM23,21h2v0.81641c0,0.40234 0.23828,0.76172 0.60938,0.92188c0.36719,0.15625 0.79688,0.07813 1.08203,-0.20312c0.99219,-0.94922 2.32422,-1.53516 3.80859,-1.53516c3.05078,0 5.5,2.44922 5.5,5.5v7.5h-2v-6.5c0,-2.46875 -2.03125,-4.5 -4.5,-4.5c-2.46875,0 -4.5,2.03125 -4.5,4.5v6.5h-2zM23,21"></path></g></g></svg>